<svg xmlns="http://www.w3.org/2000/svg" xmlns:xlink="http://www.w3.org/1999/xlink" viewBox="0 0 36.7 54.74"><defs><style>.cls-1{fill:none;}.cls-2{fill:#d7eef9;}.cls-3{clip-path:url(#clip-path);}.cls-4{fill:#060695;}.cls-5{fill:#0822ca;}.cls-6{fill:#0455db;}.cls-7{fill:#53acea;}.cls-8{fill:#b0dcf4;}</style><clipPath id="clip-path"><rect class="cls-1" x="-5.3" y="12.52" width="51.3" height="29.7" rx="1.8" ry="1.8" transform="translate(47.72 7.02) rotate(90)"/></clipPath></defs><title>Asset 2</title><g id="Layer_2" data-name="Layer 2"><g id="Layer_1-2" data-name="Layer 1"><path class="cls-2" d="M27.62,2h0m-.2,0,7.25,46.74L9.27,52.71,2,6,27.42,2m.17-2-.27,0L1.52,4A1.81,1.81,0,0,0,0,6.07L7.33,53.21a1.81,1.81,0,0,0,1.78,1.53l.27,0,25.79-4a1.82,1.82,0,0,0,1.51-2.06L29.37,1.52A1.81,1.81,0,0,0,27.59,0Z"/><g class="cls-3"><path class="cls-4" d="M35.74,44.4V53H5V44.68a20.77,20.77,0,0,1,3.7-1.14c4.18-.84,5.81.27,10.12.21,5.09-.06,5.53-1.64,9.83-1.35A18.67,18.67,0,0,1,35.74,44.4Z"/><path class="cls-5" d="M35.74,32.85V44.4a18.67,18.67,0,0,0-7.13-2c-4.3-.29-4.74,1.29-9.83,1.35-4.31.06-5.94-1-10.12-.21A20.77,20.77,0,0,0,5,44.68V34.14A99.5,99.5,0,0,0,16.22,33c4.79-.78,7-1.52,10.89-1.49A30.59,30.59,0,0,1,35.74,32.85Z"/><path class="cls-6" d="M35.74,22.59V32.85a30.59,30.59,0,0,0-8.63-1.34c-3.85,0-6.1.71-10.89,1.49A99.5,99.5,0,0,1,5,34.14V20.74a34,34,0,0,0,8,1.85c4.76.51,7.33-.25,13.61-.35A84,84,0,0,1,35.74,22.59Z"/><path class="cls-7" d="M35.74,13.05v9.54a84,84,0,0,0-9.19-.35c-6.28.1-8.85.86-13.61.35a34,34,0,0,1-8-1.85v-8c.83,0,2.1-.14,3.63-.36,4.9-.68,5.92-1.67,9.05-1.85a21.25,21.25,0,0,1,7.27,1.07c2.89.8,4.53,1.72,7.55,1.78A16,16,0,0,0,35.74,13.05Z"/><path class="cls-8" d="M35.74,1.72V13.05a16,16,0,0,1-3.28.28c-3-.06-4.66-1-7.55-1.78a21.25,21.25,0,0,0-7.27-1.07c-3.13.18-4.15,1.17-9,1.85-1.53.22-2.8.31-3.63.36v-11Z"/></g></g></g></svg>