<svg xmlns="http://www.w3.org/2000/svg" xmlns:xlink="http://www.w3.org/1999/xlink" viewBox="0 0 36.7 54.74"><defs><style>.cls-1{fill:none;}.cls-2{fill:#fff9bf;}.cls-3{clip-path:url(#clip-path);}.cls-4{fill:#ffef50;}.cls-5{fill:#fef379;}.cls-6{fill:#fff69b;}.cls-7{fill:#fffac4;}.cls-8{fill:#fffcdc;}</style><clipPath id="clip-path"><rect class="cls-1" x="-5.3" y="12.52" width="51.3" height="29.7" rx="1.8" ry="1.8" transform="translate(47.72 7.02) rotate(90)"/></clipPath></defs><title>Asset 4</title><g id="Layer_2" data-name="Layer 2"><g id="Layer_1-2" data-name="Layer 1"><path class="cls-2" d="M27.62,2h0m-.2,0,7.25,46.74L9.27,52.71,2,6,27.42,2m.17-2-.27,0L1.52,4A1.81,1.81,0,0,0,0,6.07L7.33,53.21a1.81,1.81,0,0,0,1.78,1.53l.27,0,25.79-4a1.82,1.82,0,0,0,1.51-2.06L29.37,1.52A1.81,1.81,0,0,0,27.59,0Z"/><g class="cls-3"><path class="cls-4" d="M35.72,44.37V53H5V44.65a20,20,0,0,1,3.7-1.14c4.17-.84,5.8.27,10.1.22,5.09-.07,5.52-1.65,9.82-1.36A18.66,18.66,0,0,1,35.72,44.37Z"/><path class="cls-5" d="M35.72,32.84V44.37a18.66,18.66,0,0,0-7.12-2c-4.3-.29-4.73,1.29-9.82,1.36-4.3.05-5.93-1.06-10.1-.22A20,20,0,0,0,5,44.65V34.12A96.77,96.77,0,0,0,16.22,33c4.79-.77,7-1.51,10.88-1.48A30.15,30.15,0,0,1,35.72,32.84Z"/><path class="cls-6" d="M35.72,22.59V32.84A30.15,30.15,0,0,0,27.1,31.5c-3.84,0-6.09.71-10.88,1.48A96.77,96.77,0,0,1,5,34.12V20.74a34,34,0,0,0,8,1.85c4.76.51,7.32-.25,13.59-.35A83.91,83.91,0,0,1,35.72,22.59Z"/><path class="cls-7" d="M35.72,13.06v9.53a83.91,83.91,0,0,0-9.18-.35c-6.27.1-8.83.86-13.59.35a34,34,0,0,1-8-1.85v-8c.83,0,2.1-.14,3.63-.35,4.89-.69,5.91-1.67,9-1.85a21.17,21.17,0,0,1,7.25,1.07c2.89.79,4.53,1.72,7.54,1.78A15.88,15.88,0,0,0,35.72,13.06Z"/><path class="cls-8" d="M35.72,1.75V13.06a15.88,15.88,0,0,1-3.28.29c-3-.06-4.65-1-7.54-1.78a21.17,21.17,0,0,0-7.25-1.07c-3.13.18-4.15,1.16-9,1.85-1.53.21-2.8.31-3.63.35V1.75Z"/></g></g></g></svg>